<svg viewBox="0 0 320 440" fill="none" xmlns="http://www.w3.org/2000/svg" role="img" aria-labelledby="title desc">
  <defs>
    <linearGradient id="coverSheen" x1="70" y1="28" x2="292" y2="420" gradientUnits="userSpaceOnUse">
      <stop offset="0" stop-color="white" stop-opacity="0.14"/>
      <stop offset="0.45" stop-color="white" stop-opacity="0.03"/>
      <stop offset="1" stop-color="black" stop-opacity="0.10"/>
    </linearGradient>
    <linearGradient id="spineShade" x1="18" y1="220" x2="98" y2="220" gradientUnits="userSpaceOnUse">
      <stop offset="0" stop-color="black" stop-opacity="0.24"/>
      <stop offset="0.5" stop-color="white" stop-opacity="0.10"/>
      <stop offset="1" stop-color="black" stop-opacity="0.18"/>
    </linearGradient>
    <filter id="softShadow" x="-10%" y="-10%" width="120%" height="125%" color-interpolation-filters="sRGB">
      <feDropShadow dx="0" dy="8" stdDeviation="8" flood-color="#000" flood-opacity="0.18"/>
    </filter>
  </defs>

  <!-- Book body -->
  <path filter="url(#softShadow)" d="M26 20H292L306 34V406L292 420H26L14 408V32L26 20Z" fill="currentColor"/>
  <path d="M26 20H292L306 34V406L292 420H26L14 408V32L26 20Z" fill="url(#coverSheen)"/>

  <!-- Small angled corner facets -->
  <path d="M292 20L306 34H292V20Z" fill="black" fill-opacity="0.16"/>
  <path d="M292 420L306 406H292V420Z" fill="black" fill-opacity="0.18"/>
  <path d="M26 420L14 408H26V420Z" fill="black" fill-opacity="0.18"/>
  <path d="M26 20L14 32H26V20Z" fill="white" fill-opacity="0.12"/>

  <!-- Spine -->
  <path d="M26 20H96V420H26L14 408V32L26 20Z" fill="url(#spineShade)"/>
  <rect x="43" y="20" width="22" height="400" fill="white" fill-opacity="0.08"/>
  <rect x="74" y="20" width="6" height="400" fill="black" fill-opacity="0.14"/>
  <rect x="90" y="20" width="6" height="400" fill="white" fill-opacity="0.08"/>

  <!-- Bookmark -->
  <path d="M116 20H158V112L137 92L116 112V20Z" fill="black" fill-opacity="0.22"/>
  <path d="M116 20H158V112L137 92L116 112V20Z" fill="white" fill-opacity="0.07"/>

  <!-- Initials. Replace AI with generated initials in your app. -->
  <text x="196" y="254" text-anchor="middle"
        font-family="Georgia, 'Times New Roman', serif"
        font-size="112"
        font-weight="700"
        letter-spacing="-7"
        fill="white">AI</text>
</svg>
