<?xml version="1.0" encoding="UTF-8" standalone="no"?>
<svg
   id="Layer_1"
   data-name="Layer 1"
   viewBox="0 0 1536 750"
   version="1.1"
   sodipodi:docname="homecooked.svg"
   inkscape:version="1.4.3 (0d15f75, 2025-12-25)"
   width="1536"
   height="750"
   xmlns:inkscape="http://www.inkscape.org/namespaces/inkscape"
   xmlns:sodipodi="http://sodipodi.sourceforge.net/DTD/sodipodi-0.dtd"
   xmlns="http://www.w3.org/2000/svg"
   xmlns:svg="http://www.w3.org/2000/svg">
  <sodipodi:namedview
     id="namedview60"
     pagecolor="#ffffff"
     bordercolor="#000000"
     borderopacity="0.25"
     inkscape:showpageshadow="2"
     inkscape:pageopacity="0.0"
     inkscape:pagecheckerboard="0"
     inkscape:deskcolor="#d1d1d1"
     inkscape:zoom="0.47"
     inkscape:cx="876.59574"
     inkscape:cy="602.12766"
     inkscape:window-width="1512"
     inkscape:window-height="831"
     inkscape:window-x="0"
     inkscape:window-y="33"
     inkscape:window-maximized="1"
     inkscape:current-layer="Layer_1" />
  <defs
     id="defs1">
    <style
       id="style1">
      .cls-1 {
        fill: #fbf4e4;
      }

      .cls-2 {
        fill: #7d674b;
      }

      .cls-3 {
        fill: #34512d;
      }

      .cls-4 {
        fill: #ce6925;
      }

      .cls-5 {
        fill: #869a47;
      }

      .cls-6 {
        fill: #ebbb61;
      }
    </style>
    <clipPath
       clipPathUnits="userSpaceOnUse"
       id="clipPath434">
      <rect
         style="fill:none;stroke:#000000;stroke-width:0.95194;stroke-opacity:1"
         id="rect434"
         width="1395.7927"
         height="702.17572"
         x="78.699371"
         y="151.03979" />
    </clipPath>
  </defs>
  <g
     id="g433"
     clip-path="url(#clipPath434)"
     inkscape:export-filename="g4.svg"
     inkscape:export-xdpi="96"
     inkscape:export-ydpi="96"
     transform="matrix(1.106446,0,0,1.1345623,-89.645012,-206.64113)">
    <path
       class="cls-2"
       d="m 1382.64,691.77 c -1.59,-0.27 -1.05,1.39 -0.98,2.47 0.52,7.23 4.06,14.95 2.99,22.53 -2.08,2.05 -21.28,-6.1 -25,-7 2.13,3.07 18.54,19.54 16.92,21.88 -0.23,0.33 -4.23,2.24 -5.21,2.01 -2.55,-0.61 -18.7,-23.24 -23.15,-25.95 -2.49,-2.43 -1.47,-6.19 1.49,-7.48 3.55,-1.55 23.47,7.99 28.47,9.51 0.38,-7.26 -6.11,-21.27 -5.51,-27.46 0.17,-1.72 2.78,-4.55 4.5,-4.55 1.72,0 6.57,5.5 8.01,7.02 2.92,3.08 16.91,18.57 18,21.06 1.64,3.73 -2.97,6.53 -6.09,4.03 -4.09,-6.46 -10.89,-11.47 -14.44,-18.06 z"
       id="path1" />
    <path
       class="cls-2"
       d="m 1302.19,765.73 c 0,11.73 -9.51,21.24 -21.24,21.24 -11.73,0 -21.24,-9.51 -21.24,-21.24 0,-11.73 9.51,-21.24 21.24,-21.24 11.73,0 21.24,9.51 21.24,21.24 z m -6.82,0.07 c 0,-7.99 -6.48,-14.47 -14.47,-14.47 -7.99,0 -14.47,6.48 -14.47,14.47 0,7.99 6.48,14.47 14.47,14.47 7.99,0 14.47,-6.48 14.47,-14.47 z"
       id="path2" />
    <path
       class="cls-2"
       d="m 1337.66,740.75 c 2.29,1.1 15.7,4.69 15,7.5 -0.16,0.64 -4.46,3.44 -5.49,3.47 -2.67,0.08 -10.87,-5.73 -14.08,-5.95 -3,-0.2 -4.71,2.46 -7.37,3.08 -0.34,4 6.02,8.33 5.95,11.45 -0.05,2.09 -3.57,3.89 -5.35,3.37 -1.88,-0.56 -19.52,-28.56 -21.6,-32.82 6.94,-4.09 14.62,-11.15 22.73,-11.88 10.78,-0.97 17.32,13.77 10.21,21.78 z m -22.83,-8.82 c -1.4,2.37 4.94,11.89 7.31,11.85 2.33,-0.03 11.05,-6.72 11.53,-9.57 1.08,-6.49 -3.78,-9.75 -9.75,-7.68 -0.93,0.32 -8.82,4.95 -9.09,5.4 z"
       id="path3" />
    <path
       class="cls-2"
       d="m 986.66,787.77 c 0,0 -17.84,-4.51 -21,-4.01 l -2,10 c 2.51,0.87 18.37,3.36 19,4.01 0,0 -1,6 -1.01,6 l -18.99,-4 -2.01,9.99 c 2.77,1.73 20.23,3.27 21,4.02 0.34,0.34 0.28,5.69 -0.94,6.57 -1.73,1.25 -24.01,-5.51 -28.02,-5.62 l 8.05,-38.89 c 1.13,-0.79 25.92,4.93 26.95,5.41 -0.03,0.52 -1.03,6.51 -1.03,6.52 z"
       id="path4" />
    <path
       class="cls-2"
       d="m 1038.66,814.76 v 13.01 c 0,0 -7.01,0 -7.01,0 l 1,-40.01 c 11.31,0.97 32.14,-2.18 32.01,14.52 -0.1,13.21 -15.94,15.1 -26,12.48 z m 1,-20.99 v 15 c 6.43,0.99 18.53,2.34 17.99,-7.43 -0.41,-7.52 -12.44,-7.44 -17.99,-7.57 z"
       id="path5" />
    <path
       class="cls-2"
       d="m 912.75,790.86 c -1.06,0.76 -2.68,10.53 -3.1,10.91 -0.26,0.24 -6.97,-1.05 -7.02,-1.53 l 11.98,-37.06 c 12.69,1.03 34.29,7.58 24.59,24.63 -7.23,12.71 -23.77,1.12 -26.45,3.04 z m 1.9,-6.1 c 5.88,0.82 15.73,6.86 19.25,-1.24 4.08,-9.38 -8.23,-12.5 -15.15,-12.66 z"
       id="path6" />
    <path
       class="cls-2"
       d="m 867.6,750.71 c -7.81,2.29 -4.6,0.61 -7.48,-2.89 -15.93,-19.39 -36.97,7.59 -20.97,18.95 4.48,3.18 9.31,3.81 14.49,1.99 4.36,9.31 -7.04,8.55 -12.98,6.5 -23.4,-8.08 -16.22,-44.82 11.44,-40.43 6.18,0.98 16.4,8.7 15.5,15.88 z"
       id="path7" />
    <path
       class="cls-2"
       d="m 1109.66,821.77 v 6.01 c 0,0 -23,0.99 -26.56,0.06 -1.09,-1.56 -1.36,-33.4 -0.86,-38.08 h 6.43 c 0,0 0.99,32.02 0.99,32.02 h 20 z"
       id="path8" />
    <rect
       class="cls-2"
       x="-401.43509"
       y="1106.1912"
       width="40.299999"
       height="7.52"
       transform="rotate(-67.82)"
       id="rect8" />
    <g
       id="g10"
       transform="translate(30)">
      <path
         class="cls-2"
         d="m 732.66,707.77 c -0.65,0.66 -0.61,11.49 -1.16,13.34 -0.99,3.34 -6.16,-0.45 -6.7,-2.02 -1.92,-5.55 6.16,-17.72 -6.12,-21.33 -2.62,5.12 -8.19,12.85 -12.97,5.39 l 25.44,-29.45 c 8.95,5.88 26.82,18.41 15.01,30.06 -4.82,4.76 -12.99,3.49 -13.5,4 z m -0.36,-24.9 c -1.08,0.19 -8.51,8.07 -8.4,9.41 3.79,4.24 8.52,10.2 15.05,8.27 10.25,-3.03 -2.47,-18.4 -6.65,-17.68 z"
         id="path9" />
      <path
         class="cls-2"
         d="m 793.65,718.78 c 0.33,0.49 -1.92,4.69 -2.16,4.83 -2.72,1.58 -14.72,-8.66 -18.21,-9.77 -1.07,0.19 -5.44,6.58 -5.38,7.43 0.22,3.1 13.84,7.86 13.8,10.96 0,0.25 -1.87,4.37 -2.08,4.52 -1.61,1.14 -13.76,-10.59 -16.97,-8.53 -0.33,0.21 -4.48,6.05 -4.59,6.5 -0.83,1.02 0.65,1.36 1.24,1.9 2.56,2.36 15.44,8.87 15.4,11.61 0,0.25 -1.87,4.37 -2.08,4.52 -1.29,0.92 -20.54,-13.86 -23.89,-15.09 l 21.04,-32.78 c 1.88,-0.11 20.88,11.89 23.88,13.9 z"
         id="path10" />
    </g>
    <g
       id="g15"
       transform="translate(30)">
      <path
         class="cls-4"
         d="m 1017.4,674 c 8.65,-1.22 15.3,3.79 19.76,10.76 1.69,0.42 3.1,-3.21 4.46,-4.53 14.57,-14.12 34.29,-3.62 30.79,16.79 -1.64,9.58 -16.33,26.83 -23.75,33.25 -3.87,3.35 -8.94,9.17 -13.96,5.92 -9.14,-5.9 -28.1,-27.04 -30.35,-37.64 -2.37,-11.16 0.2,-22.74 13.04,-24.56 z"
         id="path11" />
      <path
         class="cls-5"
         d="m 982.66,703.77 c -1.57,-0.46 -17.98,-4.54 -18.01,-3.5 5.24,2.33 10.85,3.98 16.31,5.73 1.04,0.33 1.58,1.73 1.7,1.77 -13.22,6.23 -25.97,4.94 -37.48,-4.02 -12.52,-9.75 -11.01,-14.41 5.09,-15.85 12.76,-1.14 26.76,3.68 32.38,15.87 z"
         id="path12" />
      <path
         class="cls-5"
         d="m 1099.66,707.77 c 0.15,-0.05 0.9,-1.74 2.25,-2.2 4.93,-1.69 10.03,-3.13 14.76,-5.3 -0.03,-1.04 -3.31,-0.45 -4.27,-0.26 -3.71,0.75 -9.25,1.86 -12.74,2.76 8.21,-16.02 31.82,-19.29 46,-9.48 -9.97,14.93 -29.1,24.16 -46,14.48 z"
         id="path13" />
      <path
         class="cls-3"
         d="m 1099.66,702.77 c 3.49,-0.9 9.03,-2.01 12.74,-2.76 0.96,-0.19 4.23,-0.78 4.27,0.26 -4.73,2.16 -9.83,3.6 -14.76,5.3 -1.35,0.46 -2.1,2.16 -2.25,2.2 -0.8,0.27 -8.68,1.26 -8.99,-0.51 -0.4,-2.29 2.17,-2.14 3.44,-2.54 1.77,-0.56 4.33,-1.63 5.55,-1.95 z"
         id="path14" />
      <path
         class="cls-3"
         d="m 982.66,703.77 c 1.17,0.35 6.88,2.16 7.01,2.51 0.89,2.39 -6.42,1.67 -7.01,1.49 -0.12,-0.04 -0.65,-1.43 -1.7,-1.77 -5.47,-1.75 -11.08,-3.4 -16.31,-5.73 0.03,-1.04 16.44,3.04 18.01,3.5 z"
         id="path15" />
    </g>
    <g
       id="g29"
       transform="translate(30)">
      <path
         class="cls-2"
         d="m 1135.66,821.76 c 0,0 -7,1.01 -7,1.01 -2.08,-1.3 -6,-9 -6.37,-8.98 0.37,-0.02 -14.28,1.07 -16.63,1.98 -0.66,1.09 -3,10 -3,10 0,0 -7,1 -7,1 l 11.64,-41.09 c 2.42,-1.01 5.5,-1.78 7.42,0.54 z m -16,-13 c 1.46,-1.37 -8.21,-15.8 -8.99,-14.99 l -4.01,15.99 12.99,-1 z"
         id="path16" />
      <path
         class="cls-2"
         d="m 1193.66,772.77 3.11,10.91 c 1.54,1.11 14.85,-5.16 17.31,-4.95 0.97,0.09 2.09,5.1 1.5,5.94 -0.52,0.73 -13.71,4.08 -15.82,5.19 -1.46,3.98 6.11,12.86 2.91,15.39 -5.29,4.18 -6.21,-1.31 -7.75,-5.24 -3.98,-10.14 -6.77,-20.92 -10.26,-31.24 7,-2.01 19,-7.01 24.71,-7.87 2.08,-0.13 4.73,5.13 1.57,6.63 -4.55,2.16 -12.25,3.63 -17.28,5.23 z"
         id="path17" />
      <path
         class="cls-2"
         d="m 1169.56,773.85 c 0.49,0.34 1.52,5.37 1.07,5.88 -1.67,0.72 -10.55,1.67 -10.93,2.07 -1.82,1.88 6.45,28.93 7.01,33.39 -0.07,0.77 -6.5,2 -7.01,1.55 -1.27,-1.12 -6.04,-28.97 -8.04,-32.98 -4.34,1.17 -15.15,6.3 -13.04,-2.36 0.38,-1.55 29.65,-8.46 30.96,-7.55 z"
         id="path18" />
      <g
         id="g22">
        <path
           class="cls-3"
           d="m 783.66,409.27 c 0.36,2.53 2.81,7.42 4.6,9.4 3.7,4.09 13.87,6.45 10.88,13.08 -3.41,7.55 -11.47,-0.53 -15.47,-2.5 -32.68,-16.07 -73.63,-15.06 -103.59,6.5 -5.67,0.94 -8.43,-3.58 -6.67,-8.71 0.91,-2.67 11.25,-19.92 13.21,-21.81 7.56,-7.34 10.1,-2.12 16.75,0.33 5.63,2.08 31.71,2.04 37.04,-0.54 3.1,-1.5 4.06,-6.51 4.29,-9.71 -0.04,-35.54 0.96,-68.54 0,-102.08 -0.89,-12.77 -2.15,-16.92 -15.66,-18.34 -20.47,-2.14 -42.15,5.12 -48.41,26.35 -3.79,12.85 -2.66,34.54 14.5,35.58 17.7,1.07 6.82,-15.62 16.24,-17.83 14.71,-3.45 20.96,13.8 16.51,25.5 -5.6,14.71 -24.26,20.57 -38.7,19.26 -34.7,-3.13 -48.76,-40.86 -32.68,-69.65 26.41,-47.29 95.87,-24.77 139.67,-29.34 9.74,7.43 -3.86,7.66 -8.02,10.98 -1.8,1.44 -4.48,6.47 -4.48,8.52 v 57.5 h 58 v -58.5 c 0,-1.84 -3.7,-7.34 -5.49,-8.51 -3.52,-2.31 -11.64,-1.47 -10.09,-7.02 0.97,-3.51 5.95,-3.74 9.05,-4.01 14.04,-1.22 39.99,-1.16 54.07,0 4.27,0.35 8.96,0.87 7.29,6.34 -0.94,3.08 -5.43,2.73 -8.07,3.96 -5.06,2.36 -6.46,6.09 -7.67,11.33 -0.09,41.41 -0.09,81.41 -0.13,122.96 0.4,5.42 1.4,12.6 6.77,15.23 3.39,1.66 9.38,0.67 9.37,5.72 0,2.82 -1.72,4.55 -4.55,4.55 l -62.84,-0.25 c -10.76,-9.78 12.3,-8.56 12.3,-18.3 v -59.5 h -58 v 53.5 z"
           id="path19" />
        <path
           class="cls-3"
           d="m 1075.66,339.77 c 7.9,-6.86 14.49,-15.44 25.03,-18.47 18.82,-5.41 33.48,2.23 41.47,19.45 14.1,-19.38 47.03,-32.3 62.32,-7.3 10.28,16.8 3.12,56.74 5.3,77.7 0.27,2.61 1.35,8.11 2.85,10.15 2.38,3.22 8.69,2.91 9.07,7.02 0.29,3.05 -1.83,4.14 -4.5,4.5 -8.82,1.17 -39.24,1.14 -48.09,0 -3.74,-0.48 -6.17,-3.92 -4,-7.1 1.26,-1.84 8.36,-1.4 9.49,-8.51 0.06,-21.44 1.06,-40.44 0.09,-60.98 -1.7,-19.77 -20.25,-20.87 -30.03,-6.96 -2.89,4.1 -0.92,4.62 -0.95,8.95 -0.13,16.61 -0.05,40.55 0.04,57.96 1.29,9.15 15.03,9.16 10.48,15.66 -1.6,2.28 -49.16,0.51 -55.63,0.49 -4.98,-9.67 7.59,-6.16 9,-15.12 0.06,-21.44 0.06,-42.44 0.05,-62.93 -2.12,-21.02 -24.8,-17.76 -31.03,-2.06 0.04,19.54 0.04,43.54 0.11,64.98 1.37,9 9,5.65 10.54,10.53 0.99,3.13 -0.93,4.93 -4.06,5.08 -8.35,-1.74 -46.78,2.35 -51.55,-0.53 -1.58,-0.96 -2.11,-3.57 -1.3,-5.24 1.88,-3.85 8.93,-1.75 10.21,-10.87 0.09,-22.41 1.09,-45.41 0.14,-65.96 -0.27,-2.79 -1.01,-5.89 -3.03,-7.97 -3.36,-3.47 -10.5,-1.24 -7.86,-8.82 1.42,-4.07 35.05,-11.47 40.61,-14.51 1.42,-0.97 5.24,2.91 5.24,3.35 v 17.5 z"
           id="path20" />
        <path
           class="cls-3"
           d="m 951.43,320.04 c 41.75,-4.7 73.04,22.44 69.21,65.21 -6.58,73.38 -128.68,67.42 -117.73,-18.73 2.98,-23.41 25.45,-43.88 48.52,-46.48 z m 8.9,9.09 c -7.83,0.05 -13.49,5.57 -16.45,12.36 -7.11,16.31 -7.2,70.44 8.84,81.71 8.38,5.89 18.57,3.6 24.37,-4.5 9.11,-12.73 7.89,-52.87 4.07,-67.94 -2.51,-9.92 -9.13,-21.71 -20.83,-21.63 z"
           id="path21" />
        <path
           class="cls-3"
           d="m 1264.77,377.88 c -0.44,24.91 26.67,46.84 49.79,32.29 4.61,-2.9 9.75,-13.17 14.13,-8.94 4.94,4.77 -4.25,15.43 -8.01,19.06 -48.13,46.36 -118.32,-15.89 -83.44,-74.44 17.55,-29.47 67.58,-38.35 85.95,-5.11 2.91,5.26 7.22,19.79 3.56,24.62 -3.24,4.26 -53.73,9.38 -61.98,12.53 z m 30.62,-17.37 c 4.51,-4.81 0.34,-27.86 -8.71,-30.27 -20.13,-5.35 -23.85,22.53 -23.03,36.53 1.16,1.14 29.75,-4.14 31.74,-6.26 z"
           id="path22" />
      </g>
      <g
         id="g28">
        <path
           class="cls-3"
           d="m 726.45,440.06 c 27.58,-2.82 76.76,4.95 77.29,41.21 0.34,23.75 -28.57,38.4 -42.6,19.51 -8.55,-11.51 6.85,-13.46 9.08,-22.95 3.16,-13.41 -8.65,-24.45 -21.18,-25.96 -60.29,-7.3 -68.2,101.98 -31.4,132.4 17.32,14.32 47.39,15.18 65.02,1 3.16,-2.54 11.86,-13.79 13.71,-14.34 11.93,-3.54 3.27,13.48 0.7,17.74 -27.37,45.45 -101.3,44.68 -131.84,3 -39.08,-53.32 -8.29,-144.52 61.21,-151.63 z"
           id="path23" />
        <path
           class="cls-3"
           d="m 1385.42,597.51 c 2.38,5.91 9.77,4.74 10.81,6.18 4.96,6.82 -12.28,9.56 -16.19,9.95 -4.72,0.47 -17.42,0.84 -21.66,-0.09 -6.36,-1.4 -5.13,-8.99 -6.21,-13.78 -17.36,20.57 -48.43,20.3 -65.48,-0.53 -30.47,-37.21 0.62,-108.43 52.42,-93.42 4.09,1.19 7.66,3.38 11.56,4.94 0.68,-10.18 -0.93,-21.46 0,-31.5 2.06,-22.31 20.39,-45.3 43.62,-47.37 15.4,-1.37 32.41,9.44 27.43,26.42 -4.26,14.51 -23.95,11.17 -22.84,-0.81 0.48,-5.18 11.46,-13.47 1.82,-16.33 -12.49,-3.71 -16.54,16.57 -17.07,25.04 l 1.81,131.29 z m -57.04,-80.52 c -22.23,4.57 -21.07,53.5 -13.92,69.47 7.54,16.82 29.03,18.99 37.14,1.76 0.05,-19.45 1.05,-40.45 -0.02,-56.89 -1.57,-10.13 -13.62,-16.31 -23.21,-14.34 z"
           id="path24" />
        <path
           class="cls-3"
           d="m 1095.66,556.77 c 6.49,-6.19 13.57,-12.25 19.51,-18.99 3.76,-4.26 13.55,-14.39 10.98,-20 -1.26,-2.74 -12.63,-5.93 -6.09,-11.12 3.17,-2.51 37.16,-0.34 43.6,-0.41 6.68,8.76 -3.43,8.13 -8.69,10.32 -7.01,2.92 -15.2,10.8 -20.84,16.16 -1.55,1.47 -9.56,8.98 -9.35,10.34 l 34.9,52.15 c 1.77,1.59 3.58,4.27 5.6,5.4 4.25,2.35 15.87,1.03 9.41,7.68 -7.34,7.56 -31.71,7.99 -40.75,2.66 -12.27,-7.23 -21.36,-35.4 -30.47,-47.03 -1.44,-0.9 -7.59,1.4 -7.86,2.5 -0.75,3.11 -0.42,23.78 0.04,27.82 1.28,11.22 9.72,8.01 11.54,11.49 1.82,3.48 -0.6,5.61 -3.99,6.06 -9.88,1.33 -35.69,0.87 -46.09,0 -3.13,-0.26 -6.48,-0.39 -6.16,-4.4 0.35,-4.5 7.07,-2.8 9.6,-7.26 1.08,-1.91 1.89,-6.59 2.09,-8.91 0.02,-35.48 0.02,-66.48 0.05,-100.02 -0.72,-4.51 -1,-11.19 -5.31,-13.69 -3.45,-2.01 -9.52,-0.68 -7.56,-7.08 0.51,-1.65 1.87,-2.14 3.27,-2.75 5.27,-2.32 15.18,-3.89 21.33,-5.67 3.92,-1.13 21.23,-9.55 21.23,-1.77 v 96.5 z"
           id="path25" />
        <path
           class="cls-3"
           d="m 1048.29,559.84 c 0,31.54 -25.57,57.1 -57.1,57.1 -31.53,0 -57.1,-25.57 -57.1,-57.1 0,-31.53 25.57,-57.1 57.1,-57.1 31.53,0 57.1,25.57 57.1,57.1 z M 987.4,513 c -17.93,2.83 -18.51,38.55 -17.74,52.26 0.57,10.1 3.92,32.17 12.63,38.37 6.26,4.45 15.78,4.01 21.4,-1.31 11.71,-11.07 9.53,-51.57 6.46,-66.56 -2.37,-11.6 -8.54,-25 -22.76,-22.76 z"
           id="path26" />
        <path
           class="cls-3"
           d="m 927.02,559.78 c 0,31.45 -25.49,56.94 -56.94,56.94 -31.45,0 -56.94,-25.49 -56.94,-56.94 0,-31.45 25.49,-56.94 56.94,-56.94 31.45,0 56.94,25.49 56.94,56.94 z M 881.3,518.12 c -9.83,-9.76 -22.72,-5.05 -28.14,6.65 -7.27,15.68 -7.26,64.42 5.95,77.04 7.39,7.06 18.89,6.18 24.98,-2.11 8.92,-12.15 7.95,-47.53 5.4,-62.27 -1.09,-6.31 -3.59,-14.73 -8.2,-19.3 z"
           id="path27" />
        <path
           class="cls-3"
           d="m 1204.8,559.9 c -2.92,4.62 5.99,22.46 9.82,26.4 8.81,9.08 27.36,11.74 38,4.91 3.9,-2.5 8.2,-12.84 12.79,-8.2 5.33,5.37 -7.98,18.57 -12.25,21.75 -46.8,34.88 -103.55,-21.36 -76.69,-73.69 15.05,-29.31 60.17,-39.1 81.18,-10.81 4.05,5.45 10.36,21.88 5.48,27.47 -4.34,4.97 -56.74,9.64 -58.33,12.16 z m 14.6,-46.92 c -11.52,1.94 -15.3,19.58 -15.73,29.3 -0.09,1.93 -0.7,6.83 1.56,7.36 2.4,0.57 28.46,-5.2 29.89,-7.9 4.49,-8.43 -2.35,-31.02 -15.72,-28.76 z"
           id="path28" />
      </g>
    </g>
    <g
       id="g60"
       transform="translate(-20)">
      <path
         class="cls-4"
         d="m 510.95,434.05 c 7.03,-8.5 22.08,2.44 14.17,11.69 -7.91,9.25 -20.75,-3.73 -14.17,-11.69 z"
         id="path29" />
      <g
         id="g42">
        <path
           class="cls-4"
           d="m 360.65,195.77 c 1.31,1.14 -9.28,10.59 -10.41,12.08 -11.44,15.12 -9.03,35.66 0.98,50.85 8.68,13.17 25.86,20.43 34.23,34.77 10.86,18.6 9.42,42.67 -4.29,59.31 -4.86,5.9 -14.24,11.33 -17.97,17.03 -2.74,4.2 -1.56,8.14 -4.05,11.93 -8.82,-15.24 9.42,-27.53 12.05,-41.93 6.71,-36.84 -28.56,-41.96 -42.72,-68.38 -15.25,-28.45 -3.22,-72.02 32.16,-75.66 z"
           id="path30" />
        <path
           class="cls-4"
           d="m 274.4,256.99 c 8.97,-1.55 16.22,5.44 16.25,14.27 0.02,6.52 -11.45,35.38 -18.29,35.31 -6.35,-0.07 -26.75,-14.79 -30.53,-20.47 -10.96,-16.49 7.58,-28.46 21.35,-17.43 1.28,-0.09 3.36,-10.31 11.23,-11.67 z"
           id="path31" />
        <path
           class="cls-4"
           d="m 402.66,305.76 c 4.92,-12.79 4.39,-24.74 -3.19,-36.31 -1.69,-2.58 -13.88,-14.61 -11.81,-16.68 18.16,5.15 29.27,16.51 27,36.5 -0.63,5.54 -5.76,16.14 -12,16.49 z"
           id="path32" />
        <g
           id="g41">
          <path
             class="cls-5"
             d="m 325.66,364.77 c -3.96,-0.67 -5.05,-5.24 -7.49,-8.01 -2.9,-3.29 -7.69,-8.24 -11.01,-10.99 -1.13,-0.93 -1.62,-2.42 -3.5,-1.99 -0.43,1.88 1.06,2.37 1.99,3.5 6.52,7.86 10.28,12.1 16,20.5 -25.23,0.9 -37.21,-20.1 -37,-43 16.21,0.51 34.5,8.26 39.78,24.73 1.92,6.01 0.56,9.76 1.23,15.27 z"
             id="path33" />
          <path
             class="cls-3"
             d="m 325.66,364.77 c 0.34,2.81 5.14,9.89 3.99,10.99 -0.91,0.88 -2.33,0.14 -3.25,-1.26 -1.56,-2.38 -3.2,-4.46 -4.74,-6.73 -5.72,-8.4 -9.49,-12.64 -16,-20.5 -0.93,-1.13 -2.43,-1.62 -1.99,-3.5 1.88,-0.43 2.37,1.06 3.5,1.99 3.32,2.75 8.11,7.7 11.01,10.99 2.44,2.77 3.53,7.34 7.49,8.01 z"
             id="path34" />
          <g
             id="g37">
            <path
               class="cls-5"
               d="m 504.66,321.77 c 1.21,-8.33 10.04,-15.18 9.49,-24.01 -1.85,-0.15 -2.28,1.75 -3.02,2.98 -3.87,6.48 -7.11,14.42 -7.47,21.03 -0.29,5.18 -3.44,9.45 -5.48,14.02 l -14.52,23.97 c 3.81,-1.48 7.28,-3.74 11.01,-5.48 2.44,-1.13 6.35,-1.55 8.29,-2.71 4.47,-2.69 6.34,-8.36 14.34,-11.66 14.18,-5.84 45.81,0.92 26.68,15.68 -8.34,6.44 -20.11,8.47 -30.14,5.49 -2.9,-0.86 -7.4,-4.16 -9.66,-4.21 -3.63,-0.08 -14.97,6.21 -18.43,8.49 -14.55,9.58 -23.53,26.61 -31.07,41.92 7.16,-2.96 12.31,-4.56 19.98,-5.51 -0.06,0.65 0.03,1.34 0,1.99 7.7,-0.03 15.42,0.45 23.01,-1 1.6,-1.3 -0.11,-1.82 -1.49,-2 -6.11,-0.78 -15.25,0.22 -21.52,1 0.62,-6.65 14.68,-12.33 20.62,-12.87 10.45,-0.95 35.66,7.13 20.88,18.87 -6.8,5.4 -17.31,7.09 -25.76,5.76 -5.47,-0.86 -12.44,-6.36 -16.33,-6.75 -5.45,-0.54 -19.31,6.84 -22.96,10.94 -2.5,2.81 -8.56,21.35 -13.01,15.1 -1.74,-2.44 6.74,-18.29 8.05,-22.07 2.82,-8.15 4.58,-17.79 4.55,-26.44 -0.02,-6.54 -7.17,-8.41 -11.05,-13.03 -5.79,-6.88 -12.72,-27.69 -3.27,-33.34 10.65,-6.36 22.22,16.29 22.28,25.32 0.03,5.56 -3.67,11.8 -3.96,16.12 -0.21,3.13 1.49,7.91 1.46,11.38 6.71,-11.52 18.1,-23.76 19.5,-37.5 0.26,-2.6 0.46,-11.59 -0.48,-13.5 -0.37,-0.75 -5.83,-4.67 -7.48,-6.52 -6.56,-7.38 -9.88,-17.87 -6.53,-27.46 3.84,-10.99 11.66,-7.96 17.32,-0.34 7.35,9.89 7.47,21.98 2.23,32.89 l -0.57,16.43 c 4.78,-9.23 17.76,-24.86 19.33,-34.76 0.53,-3.35 -1.23,-10.82 -0.81,-15.72 0.88,-10.29 7.34,-21.41 16.05,-26.95 5.55,-3.53 11.8,-6.81 14.45,1.42 5.49,17.06 -5.66,40.74 -24.51,43.01 z"
               id="path35" />
            <path
               class="cls-3"
               d="m 503.66,321.77 c 0.37,-6.61 3.61,-14.54 7.47,-21.03 0.73,-1.23 1.17,-3.13 3.02,-2.98 0.55,8.83 -8.28,15.68 -9.49,24.01 z"
               id="path36" />
            <path
               class="cls-3"
               d="m 474.66,401.77 c 6.26,-0.78 15.4,-1.78 21.52,-1 1.37,0.18 3.09,0.69 1.49,2 -7.59,1.45 -15.31,0.97 -23.01,1 0.03,-0.66 -0.06,-1.34 0,-1.99 z"
               id="path37" />
          </g>
          <g
             id="g40">
            <path
               class="cls-5"
               d="m 191.66,337.77 c -16.34,-1.71 -28.71,-20.93 -28.07,-36.51 0.52,-12.71 7.65,-11.46 16.39,-6.31 10.39,6.13 17.55,18.26 17.72,30.37 0.04,3.25 -1.36,6.08 -1.05,9.94 0.49,6.1 9.01,19.78 12.6,25.42 3.59,5.64 7.3,11.26 11.93,16.06 -1.3,-4.58 0.3,-9.76 -0.72,-14.27 -1.02,-4.51 -5.41,-8.27 -5.81,-15.25 -0.5,-8.79 8.72,-32.46 19.07,-23.01 7.24,6.61 3.89,24.42 -1.22,31.89 -5.44,7.95 -7.85,4.31 -6.82,17.15 1.18,14.63 12.68,28.02 22.97,37.52 1.48,-8.43 -4.75,-13.17 -6.71,-19.78 -2.35,-7.92 -0.38,-19.87 5.82,-25.61 12.95,-12 18.81,13.42 11.72,25.72 -6.11,10.6 -11.16,8.09 -5.31,23.66 1.48,3.93 9.72,14.62 9.56,16.49 -0.21,2.5 -1.96,2.97 -4.07,2.02 -2.11,-0.95 -9.22,-11.2 -13.07,-13.94 -4.04,-2.87 -18.19,-9.16 -22.62,-7.84 -2.3,0.69 -4.87,3.24 -7.76,4.32 -9.08,3.38 -22.74,3.01 -30.09,-4.01 -8.62,-8.23 2.88,-15.16 11.04,-16.05 16.61,-1.81 16.72,3.76 28.24,9.78 3.52,1.84 9.36,2.78 13.27,4.22 0.77,-0.73 -2.87,-4.92 -3.6,-5.89 -7.53,-10.1 -17.41,-21.69 -29.04,-26.96 -12.01,-5.44 -10.54,0.17 -21.11,1.6 -6.15,0.83 -12.44,-0.09 -18.23,-2.26 -6.95,-2.6 -18.36,-10.14 -9.53,-17.49 9.12,-7.59 27.15,-3.88 35.52,3.5 2.32,2.04 4.15,5.64 6.05,6.95 3.18,2.2 9.28,2.6 12.45,5.54 -4.07,-10.05 -10.95,-19.24 -16.03,-28.96 -1.32,-2.52 -1.73,-5.51 -2.48,-7.02 2.89,0.43 2.32,-1.04 1.46,-2.96 -1.51,-3.32 -10.1,-21.23 -11.97,-22.03 -1.27,-0.55 -1.73,0.1 -1.43,1.42 1.26,5.5 8.07,16.77 10.94,22.57 z m 33,70.01 c -1.52,-1.45 -18.82,-2.33 -22,-2.01 -1.69,1.28 0.12,1.81 1.49,1.99 4.97,0.63 11.3,1.71 16.03,1.99 0.56,0.03 7.01,0.44 4.48,-1.97 z"
               id="path38" />
            <path
               class="cls-3"
               d="m 191.66,337.77 c -2.87,-5.79 -9.68,-17.07 -10.94,-22.57 -0.3,-1.32 0.16,-1.97 1.43,-1.42 1.87,0.8 10.47,18.72 11.97,22.03 0.87,1.91 1.43,3.38 -1.46,2.96 -0.17,-0.34 -0.82,-0.64 -1,-1 z"
               id="path39" />
            <path
               class="cls-3"
               d="m 224.66,407.78 c 2.53,2.41 -3.93,2.01 -4.48,1.97 -4.73,-0.28 -11.06,-1.37 -16.03,-1.99 -1.36,-0.17 -3.18,-0.7 -1.49,-1.99 3.18,-0.32 20.48,0.56 22,2.01 z"
               id="path40" />
          </g>
        </g>
      </g>
      <g
         id="g59">
        <g
           id="g46">
          <path
             class="cls-3"
             d="m 437.66,595.77 c 22.03,11.32 39.54,-13.41 22.99,-31.49 -2.53,-2.76 -7.68,-5.82 -10.47,-8.53 -0.98,-0.95 -1.89,-1.31 -1.51,-2.98 24.71,-5.14 51.42,-11.34 72.31,-26.19 19.39,-13.79 25.27,-31.15 6.21,-48.84 -3.95,-3.67 -21.52,-16.23 -2.54,-8.46 19.5,7.99 33.96,25.41 28.02,47.48 20.69,-4.06 47.82,3.85 45,29.51 -0.99,8.98 -9.24,16.5 -17.31,19.68 -7.37,2.9 -32.36,6.75 -35.58,12.42 -1.94,3.43 -1.48,19.35 -2.12,24.88 -4.09,35.14 -14.25,60.39 -43.68,81.32 -68.06,48.41 -219.34,46.78 -286.23,-3.4 -27.75,-20.82 -39.43,-47.07 -43.96,-81.04 -0.74,-5.59 -0.34,-19.04 -2.26,-22.74 -3.62,-6.99 -29.67,-9.42 -38.2,-13.8 -17.28,-8.88 -20.77,-29.96 -4,-41.64 2.47,-1.72 12.3,-6.18 14.82,-6.18 h 18.5 c -6.72,-24.31 13.23,-43.33 34.99,-49 2.11,2.12 -9.53,9.99 -10.99,11.5 -34.06,35.34 26.13,60.45 52.98,68.01 10.15,2.86 20.62,4.78 31.02,6.49 0.64,2.34 -0.61,1.68 -1.28,2.28 -5.08,4.52 -16.62,13.72 -17.66,20.28 -2.85,18.13 12.74,28.17 28.93,21.44 0.08,20.65 -0.06,41.35 0,62 -10.05,-0.51 -7.51,4.53 -8.49,11.99 -6.05,-7.93 -14.93,-17.19 -18.39,-26.61 -2.57,-7.01 -2.3,-14.43 -5.1,-21.9 -6.92,-18.51 -25.59,-27.39 -44.01,-30.48 0.6,19.16 8.74,38.83 26.31,48.18 4.54,2.42 15.09,4.57 17.42,6.08 0.91,0.59 8.61,13.62 10.43,16.07 5.07,6.81 9.84,12.3 16.83,17.17 -6.04,0.03 -13.02,-1.47 -17.99,3.01 -0.65,2.8 10.2,6.25 12.75,7.23 17.49,6.78 36.66,10.11 55.25,12.25 3.66,0.42 7.32,0.73 11,1 17.28,1.27 33.89,1.14 51,0 4.21,-0.28 7.79,-0.52 12,-1 10.25,-1.17 58.62,-8.6 63.53,-15.97 3.01,-4.51 -11.69,-3.91 -13.53,-4.52 4.12,-4.8 8.65,-9.5 12.41,-14.59 2.75,-3.72 11.35,-18.45 14.03,-19.97 2.52,-1.43 5.44,-0.86 8.11,-1.89 22.76,-8.7 33.97,-28.16 34.45,-52.06 -12,0.93 -30.29,9.07 -37.98,18.53 -9.72,11.96 -6.81,23.51 -12.17,35.83 -1.69,3.89 -13.26,21.36 -16.37,22.64 -2.53,1.04 -0.81,-8.18 -3.91,-9.06 l -5.57,-0.93 c 0.06,-21.32 -0.09,-42.68 0,-64 z M 162.43,535 c -2.23,-2.6 -19.2,-3.64 -23.03,-3 -6.54,1.1 -12.41,7.92 -6.69,13.21 5.72,5.29 25.07,7.42 32.94,10.54 0.72,-0.76 -2.54,-19.96 -3.22,-20.76 z m 382.23,21.76 c 7.94,-3.44 30.69,-5.37 34.88,-12.6 6.2,-10.7 -11.33,-11.97 -18.26,-11.27 -1.87,0.19 -11.45,2.33 -12.39,3.1 -1.88,1.54 -3.03,17.44 -4.23,20.77 z m -289,115.01 -9.48,-13.02 c -9.67,-9.11 -23.63,-12.46 -36.53,-9.97 0.24,7.72 6.83,14.53 13.34,18.16 2.75,1.54 10.41,4.83 13.17,4.83 z M 494.48,649 c -7.78,0.32 -18.81,5.4 -24.83,10.25 -1.14,2.16 -12.25,10.75 -11.98,12 0.64,2.99 5.24,-0.15 6.62,-0.17 12.84,-0.23 21.74,2.76 32.37,-7.82 6.62,-6.6 11.93,-14.83 -2.17,-14.26 z"
             id="path42" />
          <path
             class="cls-5"
             d="m 255.66,671.77 h -19.5 c -2.76,0 -10.42,-3.3 -13.17,-4.83 -6.51,-3.64 -13.1,-10.44 -13.34,-18.16 12.9,-2.49 26.86,0.86 36.53,9.97 z"
             id="path43" />
          <path
             class="cls-5"
             d="m 494.48,649 c 14.1,-0.58 8.8,7.65 2.17,14.26 -10.62,10.58 -19.53,7.59 -32.37,7.82 -1.38,0.03 -5.98,3.17 -6.62,0.17 -0.27,-1.25 8.99,-9.49 11.98,-12 6.02,-4.85 17.06,-9.93 24.83,-10.25 z"
             id="path44" />
          <path
             class="cls-3"
             d="m 234.66,634.77 c -0.89,-0.89 -10.99,-15.99 -10.99,-15.99 2.3,-2.31 13.35,15.47 13.97,17.51 -1.3,0.92 -2.34,-0.88 -2.98,-1.51 z"
             id="path45" />
          <path
             class="cls-3"
             d="m 488.65,619.77 c 1.1,1.15 -11.54,17.74 -13.98,18.99 0,-3.77 3.06,-7.29 5.17,-10.32 0.83,-1.19 7.24,-10.3 8.81,-8.68 z"
             id="path46" />
        </g>
        <g
           id="g58">
          <path
             class="cls-6"
             d="m 441.66,540.77 v -29.5 c 0,-3.23 -5.81,-8.09 -9.48,-8.52 -4.76,-0.56 -23.77,-0.78 -28,0.05 -4.38,0.86 -2.64,5.88 -5.01,4.97 l -31.78,-28.22 c -6.94,-5.69 -17.24,-5.12 -24.23,0.23 l -63.97,61.08 -1.95,0.84 c -21.2,-3.21 -42.83,-7.39 -62.25,-16.74 -7.04,-3.39 -25.04,-13.4 -25.39,-21.69 -0.27,-6.41 12.89,-29.85 17.23,-35.82 4.34,-5.97 33.03,-35.63 38.35,-35.68 3.18,-0.03 6.55,11.99 17.5,10.62 6.05,-0.76 11.31,-6.67 10.75,-12.88 -0.41,-4.53 -4.76,-7.51 -5.78,-11.72 45.43,-18.82 93.57,-22.28 141.21,-9.73 4.61,1.21 20.99,5.67 23.8,8.23 2.4,2.19 -3.13,8.09 -3.79,11.21 -2.08,9.97 4.44,16.39 14.29,15.31 9.85,-1.08 11.11,-13.62 13.05,-14.02 21.2,11.93 40.46,29.93 53.24,50.69 3.04,4.94 11.37,19.7 11.29,24.83 -0.17,10.61 -25.07,21.83 -33.85,25.23 -14.21,5.49 -30.15,9.38 -45.25,11.25 z"
             id="path47" />
          <g
             id="g57">
            <path
               class="cls-1"
               d="m 437.66,582.77 c 0,0 0.06,55.68 0,77 -0.97,0.36 -3.38,8.02 -4.99,5.99 1.1,-8.08 -0.03,-31.63 -12.42,-29.97 -12.07,1.61 -11.83,25.19 -10.6,33.97 -1.87,-0.22 -1.38,-3.31 -3.67,-3.9 -6.84,-1.77 -3.64,15.24 -4.33,18.91 -10.07,-4.43 -6.33,11.09 -6.99,17 -4.21,0.48 -7.79,0.72 -12,1 -0.95,-15.76 1.27,-32.94 0.04,-48.54 -2.8,-35.46 -48.41,-33.69 -51.08,-4 -1.5,16.7 1.2,35.6 0.04,52.54 -3.68,-0.27 -7.34,-0.58 -11,-1 -0.22,-4.13 1.22,-15.36 -3.02,-17.51 -1.23,-0.62 -3.7,-0.31 -3.94,-0.53 -1.83,-1.76 4.82,-24.92 -10.05,-16.96 v -19.5 c 0,-3.05 -5.19,-10.51 -8.72,-11.3 -12.69,-2.85 -13.11,19.82 -12.29,27.79 -1.76,-0.38 -1.66,-2.86 -3.45,-4.07 -1.35,-0.92 -2.05,-0.85 -3.54,-0.92 -0.06,-20.65 -1,-71 -1,-74 15.1,-12.26 32.26,-30.67 47.01,-44.49 4.33,-4.05 32.14,-32.04 34.49,-32.18 8.35,6.56 16.57,13.92 24.51,21.15 18.94,17.27 37.45,37.62 56.99,53.51 z m -84,-23 h -19 v 19 h 19 z m 26,0 h -20 v 19 h 20 z m -26,24 h -19 v 20 h 19 z m 26,0 h -20 v 20 h 20 z"
               id="path48" />
            <path
               class="cls-3"
               d="m 274.66,584.77 c -11.02,8.95 -22.57,-0.22 -16.45,-9.95 l 94.4,-88.6 c 2.71,-0.93 5.72,-0.68 8.01,1.1 l 49.04,44.45 v -19 h 21 v 38.5 c 3.81,6.08 24.6,19.92 25.79,25.21 1.06,4.72 -0.54,9.48 -5.22,11.35 -5.37,2.15 -8.58,-0.83 -12.57,-4.07 -19.54,-15.89 -39.04,-37.25 -57.99,-54.51 -7.94,-7.24 -16.16,-14.59 -24.51,-21.15 -2.36,0.14 -30.16,28.13 -34.49,32.18 -14.76,13.81 -31.91,32.23 -47.01,44.49 z"
               id="path49" />
            <path
               class="cls-5"
               d="m 320.66,701.77 c -18.59,-2.14 -37.76,-5.48 -55.25,-12.25 -2.55,-0.99 -13.4,-4.43 -12.75,-7.23 4.97,-4.48 11.95,-2.98 17.99,-3.01 -6.98,-4.88 -11.76,-10.36 -16.83,-17.17 -1.82,-2.45 -9.52,-15.48 -10.43,-16.07 -2.34,-1.51 -12.88,-3.66 -17.42,-6.08 -17.56,-9.35 -25.71,-29.02 -26.31,-48.18 18.43,3.09 37.09,11.97 44.01,30.48 2.8,7.48 2.53,14.9 5.1,21.9 3.45,9.42 12.34,18.68 18.39,26.61 0.98,-7.46 -1.56,-12.5 8.49,-11.99 1.49,0.08 2.19,0 3.54,0.92 1.79,1.21 1.69,3.69 3.45,4.07 -0.82,-7.98 -0.4,-30.65 12.29,-27.79 3.53,0.79 8.72,8.25 8.72,11.3 v 19.5 c 14.86,-7.97 8.21,15.19 10.05,16.96 0.24,0.23 2.71,-0.09 3.94,0.53 4.24,2.15 2.8,13.37 3.02,17.51 z m -86,-67 c 0.64,0.63 1.68,2.43 2.98,1.51 -0.62,-2.04 -11.68,-19.81 -13.97,-17.51 0,0 10.1,15.1 10.99,15.99 z m 60.99,52.99 c -1.43,-7.51 0.25,-18.62 -1,-25.49 -0.31,-1.71 -1.07,-2.81 -2.99,-2.5 -0.28,8.85 0.4,17.79 2.03,26.49 0.31,1.63 -0.66,1.73 1.96,1.5 z"
               id="path50" />
            <path
               class="cls-5"
               d="m 437.66,659.77 5.57,0.93 c 3.11,0.88 1.39,10.1 3.91,9.06 3.11,-1.28 14.68,-18.75 16.37,-22.64 5.36,-12.32 2.44,-23.87 12.17,-35.83 7.69,-9.46 25.98,-17.6 37.98,-18.53 -0.48,23.91 -11.69,43.36 -34.45,52.06 -2.67,1.02 -5.6,0.45 -8.11,1.89 -2.68,1.52 -11.28,16.25 -14.03,19.97 -3.76,5.09 -8.29,9.79 -12.41,14.59 1.84,0.62 16.53,0.01 13.53,4.52 -4.91,7.37 -53.28,14.8 -63.53,15.97 0.66,-5.91 -3.08,-21.43 6.99,-17 0.7,-3.67 -2.5,-20.67 4.33,-18.91 2.28,0.59 1.79,3.68 3.67,3.9 -1.23,-8.78 -1.48,-32.36 10.6,-33.97 12.38,-1.65 13.52,21.89 12.42,29.97 1.61,2.02 4.03,-5.64 4.99,-5.99 z m 50.99,-40 c -1.57,-1.62 -7.98,7.49 -8.81,8.68 -2.11,3.03 -5.17,6.54 -5.17,10.32 2.44,-1.25 15.09,-17.85 13.98,-18.99 z m -65.99,61.5 c 0.45,-5.29 0,-11.56 0,-17 0,-2.01 -3,-1.58 -3,1 v 22 c 0,0.31 -1.38,1.41 -1,2.49 h 2.99 c -0.94,-3.01 0.82,-6.33 1,-8.49 z"
               id="path51" />
            <rect
               class="cls-4"
               x="359.66"
               y="583.77002"
               width="20"
               height="20"
               id="rect51" />
            <rect
               class="cls-4"
               x="359.66"
               y="559.77002"
               width="20"
               height="19"
               id="rect52" />
            <rect
               class="cls-4"
               x="334.66"
               y="583.77002"
               width="19"
               height="20"
               id="rect53" />
            <rect
               class="cls-4"
               x="334.66"
               y="559.77002"
               width="19"
               height="19"
               id="rect54" />
            <path
               class="cls-3"
               d="m 295.65,687.76 c -2.62,0.23 -1.66,0.13 -1.96,-1.5 -1.63,-8.7 -2.31,-17.64 -2.03,-26.49 1.92,-0.31 2.68,0.79 2.99,2.5 1.25,6.87 -0.43,17.98 1,25.49 z"
               id="path54" />
            <path
               class="cls-3"
               d="m 422.66,681.27 c -0.18,2.16 -1.95,5.48 -1,8.51 h -2.99 c -0.38,-1.09 1,-2.2 1,-2.51 v -22 c 0,-2.58 3,-3.01 3,-1 0,5.44 0.45,11.71 0,17 z"
               id="path55" />
            <g
               id="g56">
              <path
                 class="cls-4"
                 d="m 382.66,702.77 c -17.11,1.14 -33.72,1.27 -51,0 0,-18 -1.54,-35.84 -0.04,-52.54 2.67,-29.69 48.28,-31.45 51.08,4 1.23,15.59 -0.04,31.54 -0.04,48.54 z m -7.53,-34.82 c 0,-2.69 -2.18,-4.87 -4.87,-4.87 -2.69,0 -4.87,2.18 -4.87,4.87 0,2.69 2.18,4.87 4.87,4.87 2.69,0 4.87,-2.18 4.87,-4.87 z"
                 id="path56" />
              <circle
                 class="cls-3"
                 cx="370.26999"
                 cy="667.95001"
                 r="4.8699999"
                 id="circle56" />
            </g>
          </g>
        </g>
      </g>
    </g>
  </g>
</svg>
