<svg xmlns="http://www.w3.org/2000/svg" viewBox="0 0 64 64" role="img" aria-label="The Family Table">
  <rect width="64" height="64" rx="14" fill="#FBF7ED"/>
  <path d="M13 34c0 9.4 7.6 17 17 17h4c9.4 0 17-7.6 17-17H13Z" fill="#8BA888"/>
  <path d="M17 34c1.8 7 7.5 12 14.5 12h1c7 0 12.7-5 14.5-12H17Z" fill="#2F4F3F" opacity=".18"/>
  <path d="M11 34h42" stroke="#2F4F3F" stroke-width="3" stroke-linecap="round"/>
  <path d="M21 52h22" stroke="#2F4F3F" stroke-width="3" stroke-linecap="round"/>
  <path d="M32 32c2.8-5.3 7.8-8.2 14.8-8.7-1.6 7.2-6.4 10.7-14.8 10.7V32Z" fill="#DDE5D7" stroke="#2F4F3F" stroke-width="2" stroke-linejoin="round"/>
  <path d="M31.5 32.5 24 20" stroke="#2F4F3F" stroke-width="3" stroke-linecap="round"/>
  <path d="M21 13c2.6 0 4.6-2 4.6-4.6C28 8.4 30 10.4 30 13c0 2.6-2 4.6-4.4 4.6C25.6 15 23.6 13 21 13Z" fill="#E76F51"/>
  <path d="M39 12c1.8 0 3.2-1.4 3.2-3.2 1.8 0 3.2 1.4 3.2 3.2s-1.4 3.2-3.2 3.2C42.2 13.4 40.8 12 39 12Z" fill="#F2B34B"/>
</svg>
